<?xml version="1.0" encoding="utf-8"?>
<svg version="1.1" id="hotElement" xmlns="http://www.w3.org/2000/svg" xmlns:xlink="http://www.w3.org/1999/xlink" x="0px" y="0px"
 width="177.279px" height="203.611px" viewBox="-20 0 220 203.611" style="enable-background:new 0 0 177.279 203.611;"
 xml:space="preserve">
	<g class="blueLayer redsBlues">
		<polygon class="st7" points="115.493,59.74 138.065,63.742 136.063,74.467 126.426,79.59 	"/>
		<polygon class="st15" points="125.613,80.149 113.813,87.033 102.128,80.39 114.114,60.246 	"/>
		<polygon class="st7" points="98.965,39.944 113.853,57.231 116.173,34.741 106.329,33.7 	"/>
		<polygon class="st10" points="128.14,35.649 133.805,43.973 115.012,57.26 117.574,34.448 	"/>
		<polygon class="st9" points="138.034,62.754 115.784,58.513 134.595,45.468 140.036,53.391 	"/>
		<polygon class="st9" points="112.852,58.06 89.562,58.14 89.721,47.015 97.965,40.371 	"/>
		<polygon class="st13" points="112.852,59.34 101.086,79.51 89.322,72.705 89.402,59.5 	"/>
		<polygon class="st9" points="138.955,100.927 127.339,80.95 136.702,75.427 147.162,79.127 	"/>
		<polygon class="st10" points="165.837,102.641 161.276,111.765 140.865,102.24 161.629,92.78 	"/>
		<polygon class="st7" points="161.034,91.995 140.066,101.12 148.229,79.59 156.792,82.71 	"/>
		<polygon class="st9" points="139.831,103.138 160.794,112.885 156.632,121.769 147.748,124.891 	"/>
		<polygon class="st7" points="138.681,103.158 146.469,125.212 136.465,128.972 127.019,123.53 	"/>
		<polygon class="st15" points="114.335,115.687 126.099,122.329 137.452,102.56 114.254,102.48 	"/>
		<polygon class="st13" points="137.344,101.36 114.213,101.44 114.213,88.381 125.657,81.35 	"/>
		<polygon class="st3" points="102.288,7.076 98.141,14.233 89.882,14.2 89.882,-0.047 	"/>
		<polygon class="st8" points="88.921,0.114 88.681,14.12 80.342,14.12 76.515,6.996 	"/>
		<polygon class="st16" points="75.955,22.043 61.789,15.56 75.235,7.556 79.456,14.849 	"/>
		<polygon class="st11" points="117.173,15.56 102.448,22.283 99.124,14.989 103.407,7.635 	"/>
		<polygon class="st11" points="28.013,34.529 26.173,50.456 18.187,49.532 14.167,42.452 	"/>
		<polygon class="st16" points="151.67,51.097 150.311,35.409 163.995,43.333 159.913,50.376 	"/>
		<polygon class="st3" points="13.207,43.094 17.063,50.074 12.886,57.18 0.64,50.217 	"/>
		<polygon class="st16" points="12.646,72.984 0,81.415 0.08,66.369 7.798,66.396 	"/>
		<polygon class="st11" points="177.282,82.7 164.716,73.988 169.838,67.265 177.282,67.209 	"/>
		<polygon class="st11" points="0.08,121.11 12.326,130.174 7.414,136.526 0.08,136.402 	"/>
		<polygon class="st16" points="177.282,121.93 177.121,137.616 168.4,137.058 164.236,130.733 	"/>
		<polygon class="st16" points="25.372,152.904 26.652,168.51 12.967,160.346 17.289,153.623 	"/>
		<polygon class="st3" points="11.525,144.659 0.08,151.497 0,137.697 7.364,137.697 	"/>
		<polygon class="st8" points="12.006,159.787 0,152.984 12.006,145.941 16.088,152.742 	"/>
		<polygon class="st8" points="177.201,138.737 177.282,152.452 164.876,145.619 169.038,138.496 	"/>
		<polygon class="st14" points="99.726,181.077 96.605,188.36 88.521,188.281 88.681,176.115 	"/>
		<polygon class="st16" points="115.253,188.281 101.407,195.964 97.645,189.242 100.847,181.717 	"/>
		<polygon class="st3" points="87.401,189.641 87.394,203.658 74.652,196.558 78.904,189.468 	"/>
		<polygon class="st8" points="100.526,196.284 88.436,203.658 88.521,189.641 96.525,189.641 	"/>
		<polygon class="st11" points="162.795,161.468 149.269,169.153 150.709,153.306 158.691,154.243 	"/>
		<polygon class="st8" points="12.166,58.3 8.16,65.294 0,65.265 0.008,51.51 	"/>
		<polygon class="st3" points="177.282,52.469 177.282,66.014 169.509,66.144 165.676,59.262 	"/>
		<polygon class="st8" points="177.201,51.097 164.956,57.9 160.629,50.937 165.006,43.973 	"/>
		<polygon class="st18" points="76.115,81.272 87.401,101.44 64.35,101.36 64.35,88.033 	"/>
		<polygon class="st18" points="101.407,81.43 112.852,88.177 112.852,101.36 89.882,101.36 	"/>
		<polygon class="st18" points="88.322,103.158 99.886,123.211 88.362,130.094 76.756,123.051 	"/>
		<polygon class="st17" points="87.401,102.719 75.715,122.329 64.042,115.926 64.03,102.641 	"/>
		<polygon class="st17" points="88.761,73.907 100.287,80.871 88.601,100.559 77.076,80.469 	"/>
		<polygon class="st17" points="112.852,102.56 112.852,116.326 101.005,122.57 89.554,102.641 	"/>
		<polygon class="st15" points="88.362,59.5 88.121,72.867 76.515,79.429 65.071,59.18 	"/>
		<polygon class="st7" points="88.281,58.14 65.23,57.82 79.717,40.451 88.521,47.415 	"/>
		<polygon class="st7" points="62.029,57.98 39.538,61.982 37.698,52.617 43.461,44.693 	"/>
		<polygon class="st13" points="63.789,59.901 75.316,79.91 64.03,86.552 51.864,79.67 	"/>
		<polygon class="st9" points="79.157,39.571 64.27,56.86 61.949,34.368 71.793,33.328 	"/>
		<polygon class="st9" points="62.509,59.34 50.744,79.11 41.38,73.988 39.618,63.264 	"/>
		<polygon class="st10" points="60.828,34.05 62.909,57.019 44.5,43.573 50.823,34.929 	"/>
		<polygon class="st15" points="63.069,101.36 39.299,101.177 51.144,80.95 63.069,88.074 	"/>
		<polygon class="st7" points="50.104,80.151 38.338,100.16 30.494,78.549 40.278,74.948 	"/>
		<polygon class="st7" points="36.897,103.042 28.894,124.171 19.769,120.809 15.927,112.085 	"/>
		<polygon class="st13" points="62.749,115.687 50.984,122.329 39.299,102.24 62.829,102.48 	"/>
		<polygon class="st9" points="40.419,128.491 30.094,124.571 38.098,103.362 49.623,123.051 	"/>
		<polygon class="st9" points="36.978,100.399 16.248,91.196 20.41,82.072 29.454,79.03 	"/>
		<polygon class="st10" points="15.687,92.395 36.417,101.84 15.687,110.964 11.126,102.081 	"/>
		<polygon class="st15" points="63.069,143.78 51.624,123.611 62.909,116.967 74.835,123.611 	"/>
		<polygon class="st7" points="78.116,164.269 70.833,170.352 60.908,169.313 63.23,146.821 	"/>
		<polygon class="st7" points="38.978,140.179 40.899,129.693 50.424,124.409 61.548,144.26 	"/>
		<polygon class="st13" points="87.56,144.58 64.11,144.419 75.635,124.571 87.636,131.774 	"/>
		<polygon class="st9" points="61.149,145.619 42.851,158.563 36.978,150.342 38.738,141.458 	"/>
		<polygon class="st9" points="87.64,145.941 87.64,156.585 79.237,163.688 64.43,145.86 	"/>
		<polygon class="st10" points="62.189,146.66 59.707,169.153 49.223,168.272 43.381,160.189 	"/>
		<polygon class="st15" points="112.132,144.659 89.001,144.659 89.001,131.774 100.267,124.891 	"/>
		<polygon class="st7" points="137.664,142.18 139.184,151.145 133.262,159.309 114.934,145.941 	"/>
		<polygon class="st7" points="111.812,145.86 96.925,163.468 88.721,156.684 88.761,145.941 	"/>
		<polygon class="st13" points="125.177,124.171 113.172,144.181 101.647,123.851 113.893,117.288 	"/>
		<polygon class="st9" points="137.344,140.657 114.694,144.739 126.059,124.65 126.138,124.73 135.743,130.253 	"/>
		<polygon class="st9" points="112.888,146.929 114.853,169.791 105.087,170.51 97.806,164.269 	"/>
		<polygon class="st10" points="113.874,146.74 132.19,160.419 126.439,168.588 116.195,169.551 	"/>
		<polygon class="st4" points="71.793,31.968 62.029,32.927 60.828,16.441 75.555,23.404 	"/>
		<polygon class="st4" points="10.005,101.12 0,100.688 0.08,84.973 14.567,91.916 	"/>
		<polygon class="st4" points="18.969,121.29 13.207,129.054 0.08,119.608 14.936,112.485 	"/>
		<polygon class="st4" points="176.642,120.569 163.516,129.933 157.752,122.171 161.834,113.686 	"/>
		<polygon class="st4" points="59.468,170.592 58.027,186.758 43.86,178.276 49.063,169.631 	"/>
		<polygon class="st4" points="117.486,187.01 116.214,170.912 126.46,169.791 131.66,178.675 	"/>
		<polygon class="st4" points="44.1,25.324 49.384,34.448 43.381,42.773 29.934,33.569 	"/>
		<polygon class="st4" points="134.378,26.192 148.31,34.209 134.943,43.254 128.94,34.769 	"/>
		<polygon class="st4" points="149.509,153.306 148.031,169.551 134.464,160.108 139.744,152.105 	"/>
		<polygon class="st4" points="116.375,33.169 106.53,32.287 102.848,23.484 118.047,16.68 	"/>
		<polygon class="st4" points="41.699,159.466 28.013,168.671 26.572,152.503 36.258,151.623 	"/>
		<polygon class="st3" points="176.404,153.784 163.881,160.905 159.913,153.945 164.156,146.58 	"/>
		<polygon class="st21" points="60.748,32.768 50.104,33.809 45.301,24.683 59.468,16.68 	"/>
		<polygon class="st12" points="98.059,15.242 101.086,23.004 89.802,27.565 89.721,15.242 	"/>
		<polygon class="st14" points="88.681,15.242 88.442,27.565 77.396,22.603 80.758,15.242 	"/>
		<polygon class="st4" points="89.16,29.567 97.164,39.651 89.082,46.215 80.998,39.565 	"/>
		<polygon class="st21" points="88.041,28.927 79.78,38.63 72.994,32.376 76.756,23.804 	"/>
		<polygon class="st21" points="105.49,32.768 98.538,38.94 90.283,29.007 101.807,23.964 	"/>
		<polygon class="st21" points="149.109,35.251 150.391,51.417 140.865,52.377 135.805,44.442 	"/>
		<polygon class="st12" points="26.093,51.737 24.652,63.903 14.007,57.82 18.089,50.777 	"/>
		<polygon class="st14" points="14.087,72.385 9.238,65.988 13.447,59.021 23.691,65.103 	"/>
		<polygon class="st4" points="38.098,62.222 25.772,64.223 27.133,52.057 36.78,52.7 	"/>
		<polygon class="st4" points="24.731,66.064 28.894,77.669 20.01,80.79 14.793,73.322 	"/>
		<polygon class="st21" points="38.338,63.502 40.019,73.827 30.254,77.348 25.852,65.583 	"/>
		<polygon class="st21" points="15.047,90.635 0.401,83.273 13.447,74.228 19.289,81.751 	"/>
		<polygon class="st21" points="163.755,74.948 177.121,84.472 161.995,91.196 158.234,82.275 	"/>
		<polygon class="st21" points="14.727,111.286 0,118.351 0,102.029 10.34,102.251 	"/>
		<polygon class="st12" points="12.708,144.078 8.564,137.298 13.287,130.893 23.131,138.236 	"/>
		<polygon class="st14" points="23.771,139.537 25.212,151.462 17.528,152.503 13.366,145.302 	"/>
		<polygon class="st4" points="39.618,129.613 37.617,140.018 25.429,137.792 29.351,126.107 	"/>
		<polygon class="st21" points="24.091,137.138 14.167,129.773 20.09,122.171 28.493,125.691 	"/>
		<polygon class="st21" points="37.617,141.299 35.697,150.342 26.492,151.462 25.052,139.219 	"/>
		<polygon class="st14" points="153.111,138.978 163.516,131.774 167.917,138.337 163.755,144.821 	"/>
		<polygon class="st12" points="162.795,145.7 158.713,153.225 151.11,152.185 152.393,139.938 	"/>
		<polygon class="st4" points="146.867,126.571 151.029,138.577 138.544,140.498 136.702,130.253 	"/>
		<polygon class="st21" points="162.795,130.722 152.312,137.937 148.149,126.092 156.792,123.051 	"/>
		<polygon class="st21" points="151.271,139.617 149.829,151.783 140.226,150.741 138.624,141.779 	"/>
		<polygon class="st12" points="87.401,176.275 87.161,188.281 78.997,188.201 76.115,180.676 	"/>
		<polygon class="st4" points="86.76,174.914 75.555,179.796 71.713,171.154 79.077,165.231 	"/>
		<polygon class="st4" points="104.128,171.154 100.207,179.956 89.001,174.994 97.084,165.231 	"/>
		<polygon class="st21" points="87.961,157.385 95.964,164.349 87.881,174.034 79.957,164.427 	"/>
		<polygon class="st21" points="42.579,177.795 28.974,169.712 42.34,160.586 48.183,168.911 	"/>
		<polygon class="st21" points="70.753,171.792 74.034,180.356 59.308,186.84 60.828,170.672 	"/>
		<polygon class="st21" points="116.295,187.322 101.226,180.445 105.249,171.712 114.853,170.96 	"/>
		<polygon class="st21" points="133.366,25.605 128.026,34.529 117.574,33.328 119.256,16.68 	"/>
		<polygon class="st14" points="163.836,58.86 153.19,64.623 151.83,52.457 160.074,51.657 	"/>
		<polygon class="st12" points="153.911,65.984 164.636,59.821 168.696,66.935 163.676,73.187 	"/>
		<polygon class="st4" points="157.193,81.751 148.548,78.389 152.875,66.828 162.795,74.547 	"/>
		<polygon class="st4" points="139.505,62.701 141.105,53.552 150.391,52.377 151.99,64.783 	"/>
		<polygon class="st21" points="147.509,77.749 137.264,74.307 139.036,64.017 151.687,66.101 	"/>
		<polygon class="st21" points="42.579,43.973 37.02,51.611 27.453,50.616 29.134,34.688 	"/>
		<polygon class="st21" points="177.282,103.122 177.282,119.367 162.555,112.324 166.957,102.96 	"/>
		<polygon class="st21" points="133.753,161.229 146.948,170.51 132.861,178.276 127.927,169.296 	"/>
		<polygon class="st11" points="60.108,188.201 74.835,181.557 77.876,189.001 73.475,195.964 	"/>
		<polygon class="st4" points="166.755,101.806 177.121,101.8 177.363,85.552 162.795,92.408 	"/>
	</g>
	<g class="redLayer redsBlues	">
		<polygon class="st0" points="125.613,80.149 113.813,87.033 102.128,80.39 114.114,60.246 	"/>
		<polygon class="st0" points="114.335,115.687 126.099,122.329 137.452,102.56 114.254,102.48 	"/>
		<polygon class="st0" points="88.362,59.5 88.121,72.867 76.515,79.429 65.071,59.18 	"/>
		<polygon class="st0" points="63.069,101.36 39.299,101.177 51.144,80.95 63.069,88.074 	"/>
		<polygon class="st0" points="63.069,143.78 51.624,123.611 62.909,116.967 74.835,123.611 	"/>
		<polygon class="st0" points="112.132,144.659 89.001,144.659 89.001,131.774 100.267,124.891 	"/>
		<polygon class="st5" points="98.965,39.944 113.853,57.231 116.173,34.741 106.329,33.7 	"/>
		<polygon class="st5" points="161.034,91.995 140.066,101.12 148.229,79.59 156.792,82.71 	"/>
		<polygon class="st5" points="62.029,57.98 39.538,61.982 37.698,52.617 43.461,44.693 	"/>
		<polygon class="st5" points="36.897,103.042 28.894,124.171 19.769,120.809 15.927,112.085 	"/>
		<polygon class="st5" points="78.116,164.269 70.833,170.352 60.908,169.313 63.23,146.821 	"/>
		<polygon class="st5" points="137.664,142.18 139.184,151.145 133.262,159.309 114.934,145.941 	"/>
		<polygon class="st2" points="115.493,59.74 138.065,63.742 136.063,74.467 126.426,79.59 	"/>
		<polygon class="st2" points="138.681,103.158 146.469,125.212 136.465,128.972 127.019,123.53 	"/>
		<polygon class="st2" points="88.281,58.14 65.23,57.82 79.717,40.451 88.521,47.415 	"/>
		<polygon class="st2" points="50.104,80.151 38.338,100.16 30.494,78.549 40.278,74.948 	"/>
		<polygon class="st2" points="38.978,140.179 40.899,129.693 50.424,124.409 61.548,144.26 	"/>
		<polygon class="st2" points="111.812,145.86 96.925,163.468 88.721,156.684 88.761,145.941 	"/>
		<polygon class="st20" points="112.852,59.34 101.086,79.51 89.322,72.705 89.402,59.5 	"/>
		<polygon class="st20" points="137.344,101.36 114.213,101.44 114.213,88.381 125.657,81.35 	"/>
		<polygon class="st20" points="63.789,59.901 75.316,79.91 64.03,86.552 51.864,79.67 	"/>
		<polygon class="st20" points="62.749,115.687 50.984,122.329 39.299,102.24 62.829,102.48 	"/>
		<polygon class="st20" points="87.56,144.58 64.11,144.419 75.635,124.571 87.636,131.774 	"/>
		<polygon class="st20" points="125.177,124.171 113.172,144.181 101.647,123.851 113.893,117.288 	"/>
		<polygon class="st1" points="112.852,58.06 89.562,58.14 89.721,47.015 97.965,40.371 	"/>
		<polygon class="st1" points="138.955,100.927 127.339,80.95 136.702,75.427 147.162,79.127 	"/>
		<polygon class="st1" points="62.509,59.34 50.744,79.11 41.38,73.988 39.618,63.264 	"/>
		<polygon class="st1" points="40.419,128.491 30.094,124.571 38.098,103.362 49.623,123.051 	"/>
		<polygon class="st1" points="87.64,145.941 87.64,156.585 79.237,163.688 64.43,145.86 	"/>
		<polygon class="st1" points="137.344,140.657 114.694,144.739 126.059,124.65 126.138,124.73 135.743,130.253 	"/>
		<polygon class="st19" points="138.034,62.754 115.784,58.513 134.595,45.468 140.036,53.391 	"/>
		<polygon class="st19" points="139.831,103.138 160.794,112.885 156.632,121.769 147.748,124.891 	"/>
		<polygon class="st19" points="79.157,39.571 64.27,56.86 61.949,34.368 71.793,33.328 	"/>
		<polygon class="st19" points="36.978,100.399 16.248,91.196 20.41,82.072 29.454,79.03 	"/>
		<polygon class="st19" points="61.149,145.619 42.851,158.563 36.978,150.342 38.738,141.458 	"/>
		<polygon class="st19" points="112.888,146.929 114.853,169.791 105.087,170.51 97.806,164.269 	"/>
		<polygon class="st6" points="128.14,35.649 133.805,43.973 115.012,57.26 117.574,34.448 	"/>
		<polygon class="st6" points="165.837,102.641 161.276,111.765 140.865,102.24 161.629,92.78 	"/>
		<polygon class="st6" points="60.828,34.05 62.909,57.019 44.5,43.573 50.823,34.929 	"/>
		<polygon class="st6" points="15.687,92.395 36.417,101.84 15.687,110.964 11.126,102.081 	"/>
		<polygon class="st6" points="62.189,146.66 59.707,169.153 49.223,168.272 43.381,160.189 	"/>
		<polygon class="st6" points="113.874,146.74 132.19,160.419 126.439,168.588 116.195,169.551 	"/>
	</g>
</svg>