<?xml version="1.0" encoding="utf-8"?>
<svg version="1.1" id="moth" xmlns="http://www.w3.org/2000/svg" xmlns:xlink="http://www.w3.org/1999/xlink" x="0px" y="0px" width="177.279px" height="203.611px" viewBox="-20 0 220 203.611" style="enable-background:new 0 0 177.279 203.611;" xml:space="preserve">
	<g><g id="bigDisk" class="colors1">
		<g>
			<polygon class="st10" points="116.24,59.76 138.8,63.76 136.8,74.48 127.167,79.6 		"/>
			<polygon class="st11" points="126.355,80.158 114.56,87.04 102.88,80.4 114.861,60.266 		"/>
			<polygon class="st10" points="99.719,39.972 114.6,57.252 116.919,34.772 107.08,33.732 		"/>
			<polygon class="st5" points="128.88,35.68 134.542,44 115.759,57.281 118.32,34.48 		"/>
			<polygon class="st6" points="138.771,62.772 116.531,58.533 135.332,45.493 140.771,53.413 		"/>
			<polygon class="st6" points="113.6,58.08 90.32,58.16 90.48,47.04 98.72,40.4 		"/>
			<polygon class="st3" points="113.6,59.36 101.839,79.52 90.08,72.719 90.16,59.52 		"/>
		</g>
		<g>
			<polygon class="st6" points="139.691,100.929 128.08,80.96 137.44,75.44 147.894,79.137 		"/>
			<polygon class="st5" points="166.56,102.64 162,111.76 141.6,102.24 162.355,92.783 		"/>
			<polygon class="st10" points="161.759,92 140.8,101.12 148.96,79.6 157.52,82.719 		"/>
			<polygon class="st6" points="140.566,103.137 161.52,112.88 157.36,121.76 148.48,124.88 		"/>
			<polygon class="st10" points="139.417,103.158 147.201,125.201 137.201,128.96 127.759,123.52 		"/>
			<polygon class="st11" points="115.082,115.68 126.841,122.32 138.189,102.56 115,102.48 		"/>
			<polygon class="st3" points="138.08,101.36 114.96,101.44 114.96,88.387 126.4,81.36 		"/>
		</g>
		<polygon class="st8" points="100.48,181.041 97.36,188.32 89.28,188.24 89.44,176.081 	"/>
		<g>
			<polygon class="st2" points="76.88,81.281 88.16,101.44 65.12,101.36 65.12,88.039 		"/>
			<polygon class="st2" points="102.16,81.44 113.6,88.185 113.6,101.36 90.64,101.36 		"/>
			<polygon class="st2" points="89.08,103.158 100.64,123.201 89.12,130.081 77.52,123.041 		"/>
			<polygon class="st0" points="88.16,102.719 76.48,122.32 64.813,115.92 64.8,102.64 		"/>
			<polygon class="st0" points="89.52,73.92 101.041,80.88 89.36,100.56 77.84,80.48 		"/>
			<polygon class="st0" points="113.6,102.56 113.6,116.32 101.759,122.56 90.312,102.64 		"/>
		</g>
		<g>
			<polygon class="st11" points="89.12,59.52 88.88,72.88 77.28,79.44 65.84,59.2 		"/>
			<polygon class="st10" points="89.04,58.16 66,57.84 80.48,40.48 89.28,47.44 		"/>
			<polygon class="st10" points="62.8,58 40.32,62 38.48,52.64 44.24,44.719 		"/>
			<polygon class="st3" points="64.56,59.92 76.08,79.92 64.8,86.56 52.64,79.68 		"/>
			<polygon class="st6" points="79.92,39.6 65.04,56.88 62.72,34.4 72.56,33.36 		"/>
			<polygon class="st6" points="63.28,59.36 51.52,79.12 42.16,74 40.4,63.281 		"/>
			<polygon class="st5" points="61.6,34.081 63.68,57.04 45.28,43.6 51.6,34.96 		"/>
		</g>
		<g>
			<polygon class="st11" points="63.84,101.36 40.08,101.179 51.92,80.96 63.84,88.08 		"/>
			<polygon class="st10" points="50.88,80.16 39.12,100.16 31.28,78.56 41.059,74.96 		"/>
			<polygon class="st10" points="37.68,103.041 29.68,124.161 20.56,120.8 16.72,112.081 		"/>
			<polygon class="st3" points="63.52,115.68 51.76,122.32 40.08,102.24 63.6,102.48 		"/>
			<polygon class="st6" points="41.2,128.48 30.88,124.56 38.88,103.361 50.4,123.041 		"/>
			<polygon class="st6" points="37.76,100.4 17.04,91.2 21.2,82.08 30.24,79.04 		"/>
			<polygon class="st5" points="16.48,92.4 37.2,101.84 16.48,110.96 11.92,102.08 		"/>
		</g>
		<g>
			<polygon class="st11" points="63.84,143.76 52.4,123.6 63.68,116.96 75.6,123.6 		"/>
			<polygon class="st10" points="78.88,164.24 71.6,170.32 61.68,169.281 64,146.8 		"/>
			<polygon class="st10" points="39.76,140.161 41.68,129.68 51.2,124.4 62.32,144.24 		"/>
			<polygon class="st3" points="88.32,144.56 64.88,144.4 76.4,124.56 88.396,131.76 		"/>
			<polygon class="st6" points="61.92,145.6 43.631,158.536 37.76,150.32 39.52,141.44 		"/>
			<polygon class="st6" points="88.4,145.92 88.4,156.56 80,163.658 65.2,145.84 		"/>
			<polygon class="st5" points="62.96,146.64 60.48,169.121 50,168.24 44.16,160.161 		"/>
		</g>
		<g>
			<polygon class="st11" points="112.88,144.64 89.76,144.64 89.76,131.76 101.02,124.88 		"/>
			<polygon class="st10" points="138.4,142.161 139.919,151.121 134,159.281 115.68,145.92 		"/>
			<polygon class="st10" points="112.56,145.84 97.68,163.44 89.48,156.658 89.52,145.92 		"/>
			<polygon class="st3" points="125.919,124.161 113.919,144.161 102.4,123.84 114.64,117.281 		"/>
			<polygon class="st6" points="138.08,140.64 115.44,144.719 126.8,124.64 126.88,124.719 136.48,130.24 		"/>
			<polygon class="st6" points="113.636,146.908 115.6,169.76 105.839,170.48 98.56,164.24 		"/>
			<polygon class="st5" points="114.621,146.719 132.929,160.392 127.18,168.558 116.94,169.52 		"/>
		</g>
		<polygon class="st1" points="72.56,32 62.8,32.96 61.6,16.48 76.32,23.44 	"/>
		<polygon class="st1" points="10.8,101.12 0.8,100.689 0.88,84.981 15.36,91.92 	"/>
		<polygon class="st1" points="19.76,121.281 14,129.041 0.88,119.6 15.729,112.48 	"/>
		<polygon class="st1" points="177.36,120.56 164.24,129.92 158.48,122.161 162.56,113.68 	"/>
		<polygon class="st1" points="60.24,170.56 58.8,186.719 44.64,178.24 49.84,169.6 	"/>
		<polygon class="st1" points="118.231,186.971 116.96,170.88 127.201,169.76 132.4,178.64 	"/>
		<polygon class="st1" points="44.88,25.36 50.16,34.48 44.16,42.8 30.72,33.6 	"/>
		<polygon class="st1" points="135.115,26.227 149.041,34.24 135.68,43.281 129.68,34.8 	"/>
		<polygon class="st1" points="150.24,153.281 148.761,169.52 135.201,160.081 140.48,152.081 	"/>
		<polygon class="st1" points="117.121,33.2 107.28,32.32 103.6,23.52 118.792,16.719 	"/>
		<polygon class="st1" points="42.48,159.44 28.8,168.64 27.36,152.48 37.04,151.6 	"/>
		<polygon class="st7" points="61.52,32.8 50.88,33.84 46.08,24.719 60.24,16.719 	"/>
		<g>
			<polygon class="st4" points="98.813,15.281 101.839,23.04 90.56,27.6 90.48,15.281 		"/>
			<polygon class="st8" points="89.44,15.281 89.2,27.6 78.16,22.64 81.52,15.281 		"/>
			<polygon class="st1" points="89.919,29.6 97.919,39.68 89.84,46.24 81.76,39.594 		"/>
			<polygon class="st7" points="88.8,28.96 80.542,38.658 73.76,32.408 77.52,23.84 		"/>
			<polygon class="st7" points="106.24,32.8 99.292,38.969 91.041,29.04 102.56,24 		"/>
		</g>
		<polygon class="st7" points="149.839,35.281 151.121,51.44 141.6,52.4 136.542,44.469 	"/>
		<g>
			<polygon class="st4" points="26.88,51.76 25.44,63.92 14.8,57.84 18.88,50.8 		"/>
			<polygon class="st8" points="14.88,72.4 10.033,66.004 14.24,59.04 24.48,65.12 		"/>
			<polygon class="st1" points="38.88,62.24 26.56,64.24 27.92,52.08 37.563,52.723 		"/>
			<polygon class="st1" points="25.52,66.08 29.68,77.68 20.8,80.8 15.586,73.335 		"/>
			<polygon class="st7" points="39.12,63.52 40.8,73.84 31.04,77.36 26.64,65.6 		"/>
		</g>
		<polygon class="st7" points="15.84,90.64 1.2,83.281 14.24,74.24 20.08,81.76 	"/>
		<polygon class="st7" points="164.48,74.96 177.839,84.48 162.72,91.2 158.96,82.283 	"/>
		<polygon class="st7" points="15.52,111.281 0.8,118.344 0.8,102.029 11.135,102.251 	"/>
		<g>
			<polygon class="st4" points="13.502,144.059 9.36,137.281 14.08,130.88 23.92,138.219 		"/>
			<polygon class="st8" points="24.56,139.52 26,151.44 18.32,152.48 14.16,145.281 		"/>
			<polygon class="st1" points="40.4,129.6 38.4,140 26.217,137.776 30.137,126.096 		"/>
			<polygon class="st7" points="24.88,137.121 14.96,129.76 20.88,122.161 29.28,125.68 		"/>
			<polygon class="st7" points="38.4,141.281 36.48,150.32 27.28,151.44 25.84,139.201 		"/>
		</g>
		<g>
			<polygon class="st8" points="153.839,138.96 164.24,131.76 168.64,138.32 164.48,144.8 		"/>
			<polygon class="st4" points="163.52,145.68 159.44,153.201 151.839,152.161 153.121,139.92 		"/>
			<polygon class="st1" points="147.6,126.56 151.759,138.56 139.28,140.48 137.44,130.24 		"/>
			<polygon class="st7" points="163.52,130.708 153.041,137.92 148.88,126.081 157.52,123.041 		"/>
			<polygon class="st7" points="152,139.6 150.56,151.76 140.96,150.719 139.36,141.76 		"/>
		</g>
		<g>
			<polygon class="st4" points="88.16,176.24 87.92,188.24 79.76,188.161 76.88,180.64 		"/>
			<polygon class="st1" points="87.52,174.88 76.32,179.76 72.48,171.121 79.84,165.201 		"/>
			<polygon class="st1" points="104.88,171.121 100.96,179.92 89.76,174.96 97.839,165.201 		"/>
			<polygon class="st7" points="88.72,157.36 96.72,164.32 88.64,174 80.72,164.4 		"/>
		</g>
		<polygon class="st7" points="43.36,177.76 29.76,169.68 43.12,160.56 48.96,168.88 	"/>
		<polygon class="st7" points="71.52,171.76 74.8,180.32 60.08,186.8 61.6,170.64 	"/>
		<polygon class="st7" points="117.041,187.281 101.98,180.408 106,171.68 115.6,170.929 	"/>
		<polygon class="st7" points="134.105,25.64 128.767,34.56 118.32,33.36 120,16.719 	"/>
		<g>
			<polygon class="st8" points="164.56,58.88 153.919,64.64 152.56,52.48 160.8,51.68 		"/>
			<polygon class="st4" points="154.64,66 165.36,59.84 169.417,66.951 164.4,73.2 		"/>
			<polygon class="st1" points="157.919,81.76 149.28,78.4 153.605,66.844 163.52,74.56 		"/>
			<polygon class="st1" points="140.24,62.719 141.839,53.575 151.121,52.4 152.72,64.8 		"/>
			<polygon class="st7" points="148.24,77.76 138,74.32 139.772,64.034 152.417,66.117 		"/>
		</g>
		<polygon class="st7" points="43.36,44 37.803,51.634 28.24,50.64 29.92,34.719 	"/>
		<polygon class="st7" points="178,103.121 178,119.36 163.28,112.32 167.68,102.96 	"/>
		<polygon class="st7" points="134.49,161.201 147.68,170.48 133.6,178.24 128.667,169.265 	"/>
		<polygon class="st1" points="167.478,101.806 177.839,101.8 178.08,85.56 163.52,92.412 	"/>
	</g></g>
<g><g id="smallDisk"  class="reds">
	<g>
		<polygon class="st10" points="116.24,59.76 138.8,63.76 136.8,74.48 127.167,79.6 			"/>
		<polygon class="st11" points="126.355,80.158 114.56,87.04 102.88,80.4 114.861,60.266 			"/>
		<polygon class="st10" points="99.719,39.972 114.6,57.252 116.919,34.772 107.08,33.732 			"/>
		<polygon class="st5" points="128.88,35.68 134.542,44 115.759,57.281 118.32,34.48 			"/>
		<polygon class="st6" points="138.771,62.772 116.531,58.533 135.332,45.493 140.771,53.413 			"/>
		<polygon class="st6" points="113.6,58.08 90.32,58.16 90.48,47.04 98.72,40.4 			"/>
		<polygon class="st3" points="113.6,59.36 101.839,79.52 90.08,72.719 90.16,59.52 			"/>
	</g>
	<g>
		<polygon class="st6" points="139.691,100.929 128.08,80.96 137.44,75.44 147.894,79.137 			"/>
		<polygon class="st5" points="166.56,102.64 162,111.76 141.6,102.24 162.355,92.783 			"/>
		<polygon class="st10" points="161.759,92 140.8,101.12 148.96,79.6 157.52,82.719 			"/>
		<polygon class="st6" points="140.566,103.137 161.52,112.88 157.36,121.76 148.48,124.88 			"/>
		<polygon class="st10" points="139.417,103.158 147.201,125.201 137.201,128.96 127.759,123.52 			"/>
		<polygon class="st11" points="115.082,115.68 126.841,122.32 138.189,102.56 115,102.48 			"/>
		<polygon class="st3" points="138.08,101.36 114.96,101.44 114.96,88.387 126.4,81.36 			"/>
	</g>
	<g>
		<polygon class="st11" points="89.12,59.52 88.88,72.88 77.28,79.44 65.84,59.2 			"/>
		<polygon class="st10" points="89.04,58.16 66,57.84 80.48,40.48 89.28,47.44 			"/>
		<polygon class="st10" points="62.8,58 40.32,62 38.48,52.64 44.24,44.719 			"/>
		<polygon class="st3" points="64.56,59.92 76.08,79.92 64.8,86.56 52.64,79.68 			"/>
		<polygon class="st6" points="79.92,39.6 65.04,56.88 62.72,34.4 72.56,33.36 			"/>
		<polygon class="st6" points="63.28,59.36 51.52,79.12 42.16,74 40.4,63.281 			"/>
		<polygon class="st5" points="61.6,34.081 63.68,57.04 45.28,43.6 51.6,34.96 			"/>
	</g>
	<g>
		<polygon class="st11" points="63.84,101.36 40.08,101.179 51.92,80.96 63.84,88.08 			"/>
		<polygon class="st10" points="50.88,80.16 39.12,100.16 31.28,78.56 41.059,74.96 			"/>
		<polygon class="st10" points="37.68,103.041 29.68,124.161 20.56,120.8 16.72,112.081 			"/>
		<polygon class="st3" points="63.52,115.68 51.76,122.32 40.08,102.24 63.6,102.48 			"/>
		<polygon class="st6" points="41.2,128.48 30.88,124.56 38.88,103.361 50.4,123.041 			"/>
		<polygon class="st6" points="37.76,100.4 17.04,91.2 21.2,82.08 30.24,79.04 			"/>
		<polygon class="st5" points="16.48,92.4 37.2,101.84 16.48,110.96 11.92,102.08 			"/>
	</g>
	<g>
		<polygon class="st11" points="63.84,143.76 52.4,123.6 63.68,116.96 75.6,123.6 			"/>
		<polygon class="st10" points="78.88,164.24 71.6,170.32 61.68,169.281 64,146.8 			"/>
		<polygon class="st10" points="39.76,140.161 41.68,129.68 51.2,124.4 62.32,144.24 			"/>
		<polygon class="st3" points="88.32,144.56 64.88,144.4 76.4,124.56 88.396,131.76 			"/>
		<polygon class="st6" points="61.92,145.6 43.631,158.536 37.76,150.32 39.52,141.44 			"/>
		<polygon class="st6" points="88.4,145.92 88.4,156.56 80,163.658 65.2,145.84 			"/>
		<polygon class="st5" points="62.96,146.64 60.48,169.121 50,168.24 44.16,160.161 			"/>
	</g>
	<g>
		<polygon class="st11" points="112.88,144.64 89.76,144.64 89.76,131.76 101.02,124.88 			"/>
		<polygon class="st10" points="138.4,142.161 139.919,151.121 134,159.281 115.68,145.92 			"/>
		<polygon class="st10" points="112.56,145.84 97.68,163.44 89.48,156.658 89.52,145.92 			"/>
		<polygon class="st3" points="125.919,124.161 113.919,144.161 102.4,123.84 114.64,117.281 			"/>
		<polygon class="st6" points="138.08,140.64 115.44,144.719 126.8,124.64 126.88,124.719 136.48,130.24 			"/>
		<polygon class="st6" points="113.636,146.908 115.6,169.76 105.839,170.48 98.56,164.24 			"/>
		<polygon class="st5" points="114.621,146.719 132.929,160.392 127.18,168.558 116.94,169.52 			"/>
	</g>
</g></g>
<g><g id="yShape" class="reds">
		<g>
			<polygon class="st6" points="113.6,58.08 90.32,58.16 90.48,47.04 98.72,40.4 			"/>
			<polygon class="st3" points="113.6,59.36 101.839,79.52 90.08,72.719 90.16,59.52 			"/>
			<polygon class="st0" points="89.52,73.92 101.041,80.88 89.36,100.56 77.84,80.48 			"/>
			<polygon class="st11" points="89.12,59.52 88.88,72.88 77.28,79.44 65.84,59.2 			"/>
			<polygon class="st10" points="89.04,58.16 66,57.84 80.48,40.48 89.28,47.44 			"/>
			<polygon class="st4" points="98.813,15.281 101.839,23.04 90.56,27.6 90.48,15.281 			"/>
			<polygon class="st9" points="89.44,15.281 89.2,27.6 78.16,22.64 81.52,15.281 			"/>
			<polygon class="st1" points="89.919,29.6 97.919,39.68 89.84,46.24 81.76,39.594 			"/>
			<polygon class="st7" points="88.8,28.96 80.542,38.658 73.76,32.408 77.52,23.84 			"/>
			<polygon class="st7" points="106.24,32.8 99.292,38.969 91.041,29.04 102.56,24 			"/>
		</g>
		<g>
			<polygon class="st3" points="63.52,115.68 51.76,122.32 40.08,102.24 63.6,102.48 			"/>
			<polygon class="st6" points="41.2,128.48 30.88,124.56 38.88,103.361 50.4,123.041 			"/>
			<polygon class="st11" points="63.84,143.76 52.4,123.6 63.68,116.96 75.6,123.6 			"/>
			<polygon class="st10" points="39.76,140.161 41.68,129.68 51.2,124.4 62.32,144.24 			"/>
			<polygon class="st0" points="88.16,102.719 76.48,122.32 64.813,115.92 64.8,102.64 			"/>
			<polygon class="st4" points="13.502,144.059 9.36,137.281 14.08,130.88 23.92,138.219 			"/>
			<polygon class="st9" points="24.56,139.52 26,151.44 18.32,152.48 14.16,145.281 			"/>
			<polygon class="st1" points="40.4,129.6 38.4,140 26.217,137.776 30.137,126.096 			"/>
			<polygon class="st7" points="24.88,137.121 14.96,129.76 20.88,122.161 29.28,125.68 			"/>
			<polygon class="st7" points="38.4,141.281 36.48,150.32 27.28,151.44 25.84,139.201 			"/>
		</g>
		<g>
			<polygon class="st4" points="163.52,145.68 159.44,153.201 151.839,152.161 153.121,139.92 			"/>
			<polygon class="st10" points="139.417,103.158 147.201,125.201 137.201,128.96 127.759,123.52 			"/>
			<polygon class="st11" points="115.082,115.68 126.841,122.32 138.189,102.56 115,102.48 			"/>
			<polygon class="st3" points="125.919,124.161 113.919,144.161 102.4,123.84 114.64,117.281 			"/>
			<polygon class="st6" points="138.08,140.64 115.44,144.719 126.8,124.64 126.88,124.719 136.48,130.24 			"/>
			<polygon class="st0" points="113.6,102.56 113.6,116.32 101.759,122.56 90.312,102.64 			"/>
			<polygon class="st9" points="153.839,138.96 164.24,131.76 168.64,138.32 164.48,144.8 			"/>
			<polygon class="st1" points="147.6,126.56 151.759,138.56 139.28,140.48 137.44,130.24 			"/>
			<polygon class="st7" points="163.52,130.708 153.041,137.92 148.88,126.081 157.52,123.041 			"/>
			<polygon class="st7" points="152,139.6 150.56,151.76 140.96,150.719 139.36,141.76 			"/>
		</g>
	</g></g>
</svg>